#!OML:ASF X:\für Bonn\!DataBase\2005_08_10_Bjorn_Final\c3d\bjorn.ASF
:FULLY-SPECIFIED
:DEGREES
151
root 10.9417 18.4894 -26.7298 167.709 -67.7092 -160.71
lowerback -2.37334 -2.81571 4.99476
upperback 8.50579 -4.51961 0.141562
thorax 10.0208 -1.94112 -3.13903
lowerneck -3.59219 6.17077 3.43392
upperneck 0.666738 8.15148 -3.76131
head 1.12702 4.03895 -1.56602
rclavicle -1.98785e-015 3.97569e-015
rhumerus -59.9864 6.32044 -91.7029
rradius 69.6332
rwrist 4.81518
rhand -27.4242 29.6752
rfingers 7.12502
rthumb -0.829834 -0.302965
lclavicle -1.98785e-015 3.97569e-015
lhumerus -15.962 -32.8379 90.451
lradius 98.3658
lwrist -1.68064
lhand -43.6181 -25.268
lfingers 7.12502
lthumb -16.4535 4.05424
rfemur -39.5116 -5.30748 11.3386
rtibia 66.1599
rfoot -5.40063 13.1508
rtoes -22.0497
lfemur 4.83582 -3.05209 -27.498
ltibia 31.4026
lfoot -7.08107 -13.8625
ltoes 7.20607
152
root 10.6648 18.5797 -26.8574 166.517 -68.7548 -159.352
lowerback -2.42813 -3.19653 5.1116
upperback 8.39436 -5.05171 0.383076
thorax 9.89655 -2.2054 -2.99543
lowerneck -3.53741 6.31986 3.67158
upperneck 0.74739 8.35625 -4.30873
head 1.19164 4.13536 -1.77483
rclavicle 3.85642e-014 6.36111e-015
rhumerus -60.3483 6.12233 -91.4945
rradius 69.7675
rwrist 4.5039
rhand -27.8191 29.4128
rfingers 7.12502
rthumb -1.2112 -0.563531
lclavicle 3.85642e-014 6.36111e-015
lhumerus -16.1087 -33.1589 90.4533
lradius 98.3853
lwrist -1.84116
lhand -43.6282 -25.3626
lfingers 7.12502
lthumb -16.4633 3.9589
rfemur -39.257 -5.12813 11.6833
rtibia 62.2473
rfoot -4.86108 12.6879
rtoes -20.6263
lfemur 6.10606 -2.70101 -26.5531
ltibia 30.0872
lfoot -4.32383 -14.9645
ltoes 6.15481
153
root 10.3874 18.6585 -26.9854 165.22 -69.7889 -157.9
lowerback -2.48677 -3.56247 5.22134
upperback 8.27229 -5.56476 0.644925
thorax 9.77019 -2.46249 -2.82407
lowerneck -3.43519 6.45969 3.80544
upperneck 0.772684 8.5526 -4.8289
head 1.22545 4.22799 -1.96116
rclavicle -4.81059e-014 9.54166e-015
rhumerus -60.9096 6.03888 -91.1948
rradius 70.2085
rwrist 3.88892
rhand -27.9952 29.1514
rfingers 7.12502
rthumb -1.38125 -0.823875
lclavicle -4.81059e-014 9.54166e-015
lhumerus -16.3724 -33.5132 90.4699
lradius 98.5333
lwrist -1.89663
lhand -43.5256 -25.7155
lfingers 7.12502
lthumb -16.3645 3.61408
rfemur -38.8993 -4.93773 11.9161
rtibia 58.3247
rfoot -4.10432 12.3195
rtoes -19.3455
lfemur 7.31069 -2.62162 -25.7116
ltibia 28.9064
lfoot -1.58537 -15.6383
ltoes 6.25761
154
root 10.1134 18.7109 -27.1153 163.957 -70.8445 -156.47
lowerback -2.57675 -3.91676 5.2943
upperback 8.11299 -6.05469 0.887954
thorax 9.62717 -2.71024 -2.65085
lowerneck -3.24731 6.57938 3.95127
upperneck 0.796458 8.72449 -5.37069
head 1.24619 4.30931 -2.16157
rclavicle -4.69132e-014 1.59028e-015
rhumerus -61.3397 5.90218 -90.8641
rradius 70.499
rwrist 3.31429
rhand -28.0943 29.3371
rfingers 7.12502
rthumb -1.47695 -0.637554
lclavicle -4.69132e-014 1.59028e-015
lhumerus -16.8234 -33.856 90.7313
lradius 98.6396
lwrist -2.10903
lhand -43.4048 -26.3332
lfingers 7.12502
lthumb -16.2482 3.00598
rfemur -38.5932 -4.78258 11.9805
rtibia 54.5581
rfoot -3.17056 12.0946
rtoes -18.6016
lfemur 8.37672 -2.80227 -25.0214
ltibia 27.9554
lfoot 0.947231 -15.7865
ltoes 7.66789
155
root 9.83205 18.769 -27.2396 162.518 -71.8724 -154.896
lowerback -2.64832 -4.24237 5.40931
upperback 7.94219 -6.50693 1.12789
thorax 9.46252 -2.9376 -2.49815
lowerneck -2.97082 6.66849 4.03985
upperneck 0.772315 8.85736 -5.88541
head 1.23095 4.37307 -2.34982
rclavicle 5.80451e-014 -4.77083e-015
rhumerus -61.8276 5.59828 -90.463
rradius 70.8035
rwrist 2.87449
rhand -28.0662 29.7014
rfingers 7.12502
rthumb -1.44987 -0.273466
lclavicle 5.80451e-014 -4.77083e-015
lhumerus -17.4 -34.2477 91.0017
lradius 98.8463
lwrist -2.29136
lhand -43.3464 -26.8445
lfingers 7.12502
lthumb -16.1919 2.49922
rfemur -38.1477 -4.58886 11.9585
rtibia 50.9275
rfoot -2.42094 12.0516
rtoes -19.2793
lfemur 9.36256 -3.13651 -24.413
ltibia 27.2412
lfoot 3.09527 -15.4386
ltoes 9.37293
156
root 9.54956 18.8149 -27.3626 161.028 -72.8965 -153.265
lowerback -2.76832 -4.5458 5.49535
upperback 7.76597 -6.92918 1.36051
thorax 9.32763 -3.15085 -2.33908
lowerneck -2.61458 6.73683 4.09235
upperneck 0.690416 8.96175 -6.37881
head 1.17942 4.42504 -2.5309
rclavicle 2.26615e-014 -3.02153e-014
rhumerus -62.3703 5.35244 -90.0141
rradius 71.2078
rwrist 2.49954
rhand -27.9924 30.5906
rfingers 7.12502
rthumb -1.37861 0.615273
lclavicle 2.26615e-014 -3.02153e-014
lhumerus -17.9066 -34.6969 91.2475
lradius 98.9358
lwrist -2.40799
lhand -43.3885 -27.4478
lfingers 7.12502
lthumb -16.2324 1.89263
rfemur -37.7166 -4.37441 11.8248
rtibia 47.5566
rfoot -1.81321 12.0698
rtoes -19.9
lfemur 10.1678 -3.55741 -23.8995
ltibia 26.8757
lfoot 4.71719 -14.6625
ltoes 10.7843
